<?xml version="1.0" encoding="utf-8"?>
<!-- Generator: Adobe Illustrator 16.0.0, SVG Export Plug-In . SVG Version: 6.00 Build 0)  -->
<!DOCTYPE svg PUBLIC "-//W3C//DTD SVG 1.1//EN" "http://www.w3.org/Graphics/SVG/1.1/DTD/svg11.dtd">
<svg version="1.1" id="Layer_1" xmlns="http://www.w3.org/2000/svg" xmlns:xlink="http://www.w3.org/1999/xlink" x="0px" y="0px"
	 width="100px" height="30px" viewBox="0 0 100 30" enable-background="new 0 0 100 30" xml:space="preserve">
<g transform="translate(0.000000,341.000000) scale(0.100000,-0.100000)">
	<path fill="#FFFFFF" d="M83.936,3369.619c-15.21-3.491-28.999-12.554-45.459-29.614c-9.043-9.458-18.911-21.797-21.797-27.358
		c-5.747-11.724-11.514-37.217-11.514-51.406c0.205-28.799,12.549-63.965,27.563-79.395c28.789-29.209,75.474-24.268,111.265,11.719
		c15.835,15.83,25.908,32.715,30.85,51.621c4.106,16.055,3.906,27.563-1.025,46.284c-2.271,8.428-4.116,18.301-4.116,21.797
		c0,10.493-5.967,24.683-14.194,34.15C139.673,3365.298,107.378,3375.381,83.936,3369.619z M67.9,3344.326
		c-6.787-3.501-17.695-12.134-24.482-18.921l-12.134-12.139l5.347,10.068c5.552,10.913,12.759,17.49,26.738,23.872
		C77.764,3353.579,81.26,3351.523,67.9,3344.326z M111.904,3334.248c2.261-1.23,7.197-7.412,11.318-13.574
		c20.361-31.055,24.062-88.652,6.582-105.117c-11.313-10.469-41.343-17.246-52.241-11.719c-16.45,8.438-25.303,30.664-26.738,66.445
		c-1.24,36.201,0,42.783,11.104,53.682c4.937,4.932,12.544,10.283,16.865,11.729C87.231,3338.974,105.742,3338.159,111.904,3334.248
		z M150.576,3219.072c-9.258-20.361-27.354-33.125-49.78-35.781c-6.162-0.83-11.309-0.83-11.309-0.215
		c0,0.635,6.172,3.086,13.579,5.557c15.84,5.332,38.867,23.643,46.479,37.021C156.123,3236.748,156.743,3232.246,150.576,3219.072z"
		/>
	<path fill="#FFFFFF" d="M352.134,3337.329c-9.463-10.283-13.779-22.417-13.779-41.133c0-9.458,0.62-17.07,1.646-17.07
		c6.372,0,24.268,22.207,26.323,32.695c0.825,3.501,2.476,7.207,3.711,8.438c3.281,2.671,1.021,19.746-2.48,19.131
		c-1.44-0.415-2.461,0.415-2.461,1.436C365.093,3344.946,357.485,3342.671,352.134,3337.329z"/>
	<path fill="#FFFFFF" d="M816.523,3303.808c-4.922-5.146-9.648-8.018-11.709-7.612c-7.402,2.061-36.201-2.471-49.336-7.817
		c-18.125-7.197-31.074-16.655-44.648-32.485c-27.158-31.694-27.578-50.396-1.025-76.938c16.65-16.855,35.576-27.344,49.141-27.344
		c11.533,0,26.963,7.822,49.775,25.088c18.301,13.789,31.484,28.799,31.484,35.986c0,4.346-2.48,3.291-13.369-5.742
		c-15.645-12.979-30.029-18.711-49.57-19.951c-18.105-1.045-27.979,1.836-35.586,10.693c-2.266,2.256-7.607,8.438-12.129,13.574
		c-12.139,13.779-12.139,18.906,0.186,32.275c13.184,14.409,35.596,29.424,43.799,29.424c9.902,0,23.457-5.977,25.312-11.108
		c1.025-2.476,1.025-10.283,0-17.681c-1.436-11.729-1.025-13.779,2.48-17.471c3.906-3.936,3.906-3.936,13.564,5.742
		c8.848,8.633,9.473,9.863,6.582,12.744c-2.881,2.891-2.881,4.531-0.41,12.959c1.65,5.352,4.121,12.549,5.547,15.835
		c3.105,7.402,3.105,36.411,0.225,37.441C825.605,3311.821,820.859,3308.325,816.523,3303.808z"/>
	<path fill="#FFFFFF" d="M409.302,3292.695c-8.223-8.838-8.838-11.514-10.474-47.51c-1.24-25.908,1.226-68.896,4.727-82.676
		c1.436-6.172,5.747-5.957,11.929,0.41l4.731,5.352l2.466-7.422c3.091-9.033,6.787-9.033,15.835,0
		c7.817,7.832,7.817,7.422,1.65,27.783c-1.855,6.172-3.911,21.592-4.536,34.131l-1.226,22.822l11.724,6.797
		c6.377,3.511,15.22,6.992,19.536,7.617c6.987,1.03,8.433,0.415,13.984-6.572c13.579-16.26,18.306-46.904,11.108-70.557
		c-5.552-18.291-5.552-21.807-0.21-20.361c2.681,0.625,4.126,0,4.126-1.846c0-5.771,7.402-2.686,16.851,6.982l9.678,9.668
		l-1.865,39.072c-2.061,45.059-4.307,58.218-11.914,67.266c-5.151,5.967-5.771,6.167-17.896,5.142
		c-15.22-1.44-29.409-7.412-43.809-18.306l-11.108-8.228l1.44,11.514c1.636,12.754-0.62,14.604-10.083,8.438l-4.727-3.086
		l1.03,10.283c0.811,8.848,0.41,10.288-2.676,10.288C417.534,3299.697,413.013,3296.606,409.302,3292.695z"/>
	<path fill="#FFFFFF" d="M258.96,3277.28c-4.727-2.266-12.339-7.202-16.855-11.318c-4.321-4.111-8.848-7.402-9.673-7.402
		s-0.825,4.937,0,10.898l1.436,10.693l-4.312-3.906c-4.116-3.701-4.326-3.701-4.326-0.205s-0.205,3.496-3.901,0.205
		c-3.086-2.676-4.111-2.886-4.937-0.815c-1.646,4.722-11.934-2.681-17.28-12.554c-2.466-4.932-6.172-10.073-8.022-11.519
		c-3.281-2.256-3.281-4.102,0-25.889c1.851-12.969,4.736-35.82,6.377-50.84c3.496-30.615,5.356-36.592,11.108-33.516
		c2.056,1.25,4.727,3.506,6.377,5.137c3.291,4.121,6.167,4.121,6.167,0.42c0-1.65,2.266-5.557,4.941-8.633
		c4.727-5.762,4.937-5.762,10.283-2.061c6.172,3.916,14.189,15.84,11.924,17.695c-2.471,1.66-8.433,26.729-6.582,27.754
		c0.83,0.625-0.615,7.812-3.286,16.26c-2.671,8.438-5.142,20.156-5.347,26.309l-0.62,10.918l10.288,5.156
		c13.984,6.758,31.255,6.973,39.482,0.4c3.086-2.48,7.202-5.146,9.263-5.762c1.851-0.625,3.696-2.9,4.316-5.137
		c1.641-5.771,6.172-2.871,10.083,6.367c2.051,4.941,4.717,8.232,6.787,8.232c2.876,0,3.281,1.23,2.051,7.803
		c-2.261,12.759-5.762,17.695-16.45,23.457C285.703,3282.212,271.309,3282.832,258.96,3277.28z"/>
	<path fill="#FFFFFF" d="M346.577,3271.303l-11.309-10.273l0.415-43.823c0.41-44.619,3.291-70.137,7.612-69.502
		c1.226,0.205,3.691-0.225,5.747-1.035c4.326-1.836,13.169,2.686,20.991,10.908l6.167,6.367l-3.496,21.396
		c-2.266,13.975-3.496,33.32-3.496,56.777c0,32.485-0.21,35.161-3.501,34.536c-2.061-0.41-4.731,0.415-5.762,2.051
		C358.306,3280.766,355.43,3279.126,346.577,3271.303z"/>
	<path fill="#FFFFFF" d="M581.875,3273.154c-25.098-16.855-44.219-47.09-44.834-70.732c-0.41-23.867,9.854-39.707,32.695-49.785
		c7.822-3.701,16.035-5.156,34.346-6.172c29.414-1.631,35.166,0.42,55.342,19.746c11.074,10.908,14.189,15.43,17.881,26.328
		c2.471,7.402,4.521,16.445,4.521,20.146c0,10.078-11.729,36.416-20.576,46.484c-12.529,13.984-24.463,19.336-47.285,20.981
		l-19.551,1.44L581.875,3273.154z M610.039,3247.256c12.969-4.541,30.039-16.865,38.057-27.363
		c16.875-21.992,3.291-38.867-34.551-42.979c-37.852-3.916-61.289,22.812-46.68,53.887c7.188,15.215,12.539,19.531,24.062,19.531
		C596.475,3250.332,605.117,3248.896,610.039,3247.256z M655.088,3173.398c0-0.4-1.641-2.051-3.496-3.467
		c-3.301-2.686-3.496-2.48-0.82,0.801C653.447,3174.043,655.088,3175.049,655.088,3173.398z"/>
	<path fill="#FFFFFF" d="M899.844,3277.685c-12.959-6.382-36.406-31.67-43.623-47.1c-9.648-20.557-10.469-38.662-2.236-54.297
		c4.717-8.838,8.633-12.754,18.711-19.131c12.324-7.803,13.779-8.223,38.242-10.088c33.535-2.451,37.432-1.406,57.178,16.875
		c14.6,13.369,16.064,15.635,21.201,30.654c5.771,17.9,5.771,20.361-2.48,40.312c-7.822,18.516-15.85,28.789-28.779,36.602
		c-10.713,6.382-13.994,7.402-31.484,8.438C910.332,3281.181,905.801,3280.766,899.844,3277.685z M932.539,3242.119
		c15.635-8.447,32.519-26.143,34.346-35.996c2.461-13.174-8.008-22.227-31.875-27.773c-29.404-7.002-55.938,5.361-60.869,28.174
		c-2.08,10.078,3.906,27.773,12.334,36.826c7.188,7.388,7.393,7.593,20.361,6.562
		C916.299,3249.101,923.486,3246.826,932.539,3242.119z M963.584,3171.347c0-0.41-1.631-2.061-3.477-3.496
		c-3.32-2.666-3.496-2.461-0.82,0.83C961.953,3171.982,963.584,3172.998,963.584,3171.347z"/>
</g>
</svg>
